<svg xmlns="http://www.w3.org/2000/svg" viewBox="0 0 1600 1100" width="1600" height="1100">
  <defs><filter id="paper"><feTurbulence type="fractalNoise" baseFrequency="1.7" numOctaves="2" seed="4"/><feColorMatrix values="0 0 0 0 0.14  0 0 0 0 0.11  0 0 0 0 0.08  0 0 0 0.05 0"/></filter></defs>
  <rect width="1600" height="1100" fill="#EFE9DA"/>
  <rect width="1600" height="1100" filter="url(#paper)"/>

  <text x="90" y="118" font-family="'IBM Plex Mono'" font-size="11" fill="#2B2520" letter-spacing="4">TIMELABS · SELO INSTITUCIONAL</text>
  <text x="1510" y="118" text-anchor="end" font-family="'IBM Plex Mono'" font-size="11" fill="#2B2520" letter-spacing="4">FOLIO 04 / 10</text>
  <line x1="90" y1="136" x2="1510" y2="136" stroke="#2B2520" stroke-width="0.4"/>

  <text x="90" y="210" font-family="'IBM Plex Mono'" font-size="12" fill="#E0B03A" letter-spacing="8">§ IV · INSIGNIA</text>

  <!-- Explanation left -->
  <g>
    <text x="90" y="290" font-family="'Gloock', serif" font-size="56" fill="#2B2520">O Selo.</text>
    <text x="90" y="360" font-family="'Instrument Serif', serif" font-style="italic" font-size="26" fill="#2B2520">assinatura institucional,</text>
    <text x="90" y="395" font-family="'Instrument Serif', serif" font-style="italic" font-size="26" fill="#2B2520">carimbo, chancela.</text>
    <line x1="90" y1="430" x2="280" y2="430" stroke="#2B2520" stroke-width="0.5"/>

    <g font-family="'IBM Plex Serif', serif" font-size="17" fill="#2B2520">
      <text x="90" y="480">Insignia circular com orbita tipografica,</text>
      <text x="90" y="505">seis glifos nos vertices do hexagono central</text>
      <text x="90" y="530">e reator dourado com monograma TL.</text>
      <text x="90" y="575">Cada glifo representa uma operacao fundamental:</text>
    </g>

    <g font-family="'IBM Plex Mono'" font-size="13" fill="#2B2520" letter-spacing="4">
      <text x="90" y="615">· TRANSMUTAR · INTEGRAR · OTIMIZAR</text>
      <text x="90" y="640">· ANALISAR · CICLAR · REGISTRAR</text>
    </g>

    <g font-family="'IBM Plex Mono'" font-size="11" fill="#2B2520" letter-spacing="3" opacity="0.75">
      <text x="90" y="725" fill="#E0B03A">· USO</text>
      <text x="90" y="750">Assinatura de propostas e documentos</text>
      <text x="90" y="772">Carimbo/selo em materiais institucionais</text>
      <text x="90" y="794">Footer de site e apresentacoes</text>
      <text x="90" y="816">Favicon em tamanho grande</text>
      <text x="90" y="840">Nunca inverter ou distorcer</text>
    </g>
  </g>

  <!-- SELO: reproducao completa a direita -->
  <g transform="translate(1150,560) scale(1.1)">
    <circle r="220" fill="none" stroke="#2B2520" stroke-width="0.8"/>
    <circle r="215" fill="none" stroke="#2B2520" stroke-width="1.6"/>
    <circle r="180" fill="none" stroke="#2B2520" stroke-width="0.6"/>
    <circle r="175" fill="none" stroke="#2B2520" stroke-width="0.4"/>

    <!-- orbital top -->
    <g>
      <text x="-167.18" y="-106.09" font-family="'IBM Plex Mono'" font-size="12" fill="#2B2520" text-anchor="middle" transform="rotate(302.40 -167.18 -106.09)">T</text>
      <text x="-157.71" y="-119.71" font-family="'IBM Plex Mono'" font-size="12" fill="#2B2520" text-anchor="middle" transform="rotate(307.20 -157.71 -119.71)">I</text>
      <text x="-147.14" y="-132.49" font-family="'IBM Plex Mono'" font-size="12" fill="#2B2520" text-anchor="middle" transform="rotate(312.00 -147.14 -132.49)">M</text>
      <text x="-135.54" y="-144.34" font-family="'IBM Plex Mono'" font-size="12" fill="#2B2520" text-anchor="middle" transform="rotate(316.80 -135.54 -144.34)">E</text>
      <text x="-122.99" y="-155.17" font-family="'IBM Plex Mono'" font-size="12" fill="#2B2520" text-anchor="middle" transform="rotate(321.60 -122.99 -155.17)">L</text>
      <text x="-109.57" y="-164.92" font-family="'IBM Plex Mono'" font-size="12" fill="#2B2520" text-anchor="middle" transform="rotate(326.40 -109.57 -164.92)">A</text>
      <text x="-95.39" y="-173.51" font-family="'IBM Plex Mono'" font-size="12" fill="#2B2520" text-anchor="middle" transform="rotate(331.20 -95.39 -173.51)">B</text>
      <text x="-80.53" y="-180.88" font-family="'IBM Plex Mono'" font-size="12" fill="#2B2520" text-anchor="middle" transform="rotate(336.00 -80.53 -180.88)">S</text>
      <text x="-49.24" y="-191.78" font-family="'IBM Plex Mono'" font-size="12" fill="#2B2520" text-anchor="middle" transform="rotate(345.60 -49.24 -191.78)">·</text>
      <text x="-16.57" y="-197.31" font-family="'IBM Plex Mono'" font-size="12" fill="#2B2520" text-anchor="middle" transform="rotate(355.20 -16.57 -197.31)">C</text>
      <text x="-0.00" y="-198.00" font-family="'IBM Plex Mono'" font-size="12" fill="#2B2520" text-anchor="middle" transform="rotate(360.00 -0.00 -198.00)">O</text>
      <text x="16.57" y="-197.31" font-family="'IBM Plex Mono'" font-size="12" fill="#2B2520" text-anchor="middle" transform="rotate(4.80 16.57 -197.31)">D</text>
      <text x="33.02" y="-195.23" font-family="'IBM Plex Mono'" font-size="12" fill="#2B2520" text-anchor="middle" transform="rotate(9.60 33.02 -195.23)">E</text>
      <text x="49.24" y="-191.78" font-family="'IBM Plex Mono'" font-size="12" fill="#2B2520" text-anchor="middle" transform="rotate(14.40 49.24 -191.78)">X</text>
      <text x="80.53" y="-180.88" font-family="'IBM Plex Mono'" font-size="12" fill="#2B2520" text-anchor="middle" transform="rotate(24.00 80.53 -180.88)">O</text>
      <text x="95.39" y="-173.51" font-family="'IBM Plex Mono'" font-size="12" fill="#2B2520" text-anchor="middle" transform="rotate(28.80 95.39 -173.51)">P</text>
      <text x="109.57" y="-164.92" font-family="'IBM Plex Mono'" font-size="12" fill="#2B2520" text-anchor="middle" transform="rotate(33.60 109.57 -164.92)">E</text>
      <text x="122.99" y="-155.17" font-family="'IBM Plex Mono'" font-size="12" fill="#2B2520" text-anchor="middle" transform="rotate(38.40 122.99 -155.17)">R</text>
      <text x="135.54" y="-144.34" font-family="'IBM Plex Mono'" font-size="12" fill="#2B2520" text-anchor="middle" transform="rotate(43.20 135.54 -144.34)">A</text>
      <text x="147.14" y="-132.49" font-family="'IBM Plex Mono'" font-size="12" fill="#2B2520" text-anchor="middle" transform="rotate(48.00 147.14 -132.49)">N</text>
      <text x="157.71" y="-119.71" font-family="'IBM Plex Mono'" font-size="12" fill="#2B2520" text-anchor="middle" transform="rotate(52.80 157.71 -119.71)">D</text>
      <text x="167.18" y="-106.09" font-family="'IBM Plex Mono'" font-size="12" fill="#2B2520" text-anchor="middle" transform="rotate(57.60 167.18 -106.09)">I</text>
    </g>

    <g fill="#2B2520">
      <circle cx="0" cy="-198" r="2.2"/><circle cx="198" cy="0" r="2.2"/>
      <circle cx="0" cy="198" r="2.2"/><circle cx="-198" cy="0" r="2.2"/>
    </g>

    <g stroke="#2B2520" fill="none" stroke-width="1.5" stroke-linecap="round" stroke-linejoin="round">
      <g transform="translate(0,-145)"><polygon points="0,-13 11,8 -11,8"/><line x1="-14" y1="-2" x2="14" y2="-2"/></g>
      <g transform="translate(125,-72)"><line x1="-11" y1="8" x2="0" y2="-10"/><line x1="0" y1="-10" x2="11" y2="8"/><line x1="-11" y1="8" x2="11" y2="8"/><circle cx="-11" cy="8" r="2.5" fill="#2B2520"/><circle cx="11" cy="8" r="2.5" fill="#2B2520"/><circle cx="0" cy="-10" r="2.5" fill="#2B2520"/></g>
      <g transform="translate(125,72)"><polygon points="0,-10 11,0 0,10 -11,0"/><line x1="-6" y1="0" x2="6" y2="0"/></g>
      <g transform="translate(0,145)"><ellipse rx="13" ry="7"/><circle r="3"/><line x1="0" y1="-11" x2="0" y2="-7"/><line x1="0" y1="7" x2="0" y2="11"/></g>
      <g transform="translate(-125,72)"><path d="M 10,0 A 10,10 0 1,1 0,-10"/><polyline points="-4,-12 0,-10 -2,-6"/></g>
      <g transform="translate(-125,-72)"><line x1="0" y1="-10" x2="0" y2="10"/><path d="M 0,-10 L -12,-7 L -12,11 L 0,10"/><path d="M 0,-10 L 12,-7 L 12,11 L 0,10"/></g>
    </g>
    <g stroke="#2B2520" stroke-width="0.35" opacity="0.55">
      <line x1="0" y1="-132" x2="0" y2="-80"/><line x1="114" y1="-66" x2="70" y2="-41"/>
      <line x1="114" y1="66" x2="70" y2="41"/><line x1="0" y1="132" x2="0" y2="80"/>
      <line x1="-114" y1="66" x2="-70" y2="41"/><line x1="-114" y1="-66" x2="-70" y2="-41"/>
    </g>
    <polygon points="80,0 40,-69.3 -40,-69.3 -80,0 -40,69.3 40,69.3" fill="#EFE9DA" stroke="#2B2520" stroke-width="2.2"/>
    <circle r="22" fill="#E0B03A"/>
    <circle r="22" fill="none" stroke="#2B2520" stroke-width="1.2"/>
    <text x="0" y="11" text-anchor="middle" font-family="'Gloock', serif" font-size="40" fill="#2B2520">TL</text>
  </g>

  <line x1="90" y1="990" x2="1510" y2="990" stroke="#2B2520" stroke-width="0.4"/>
  <text x="90" y="1012" font-family="'IBM Plex Mono'" font-size="10" fill="#2B2520" letter-spacing="3">TIMELABSBR.COM</text>
  <text x="1510" y="1012" text-anchor="end" font-family="'Instrument Serif'" font-style="italic" font-size="14" fill="#2B2520">IV</text>
</svg>
