<svg xmlns="http://www.w3.org/2000/svg" viewBox="0 0 600 680" width="600" height="680">
  <defs>
    <!-- Textura de papel: ruido fractal sutil -->
    <filter id="paper" x="0" y="0" width="100%" height="100%">
      <feTurbulence type="fractalNoise" baseFrequency="1.8" numOctaves="2" seed="7" result="noise"/>
      <feColorMatrix in="noise" values="0 0 0 0 0.12  0 0 0 0 0.10  0 0 0 0 0.08  0 0 0 0.06 0"/>
    </filter>
    <!-- Sombra sutil para dar volume de tinta -->
    <filter id="ink" x="-10%" y="-10%" width="120%" height="120%">
      <feGaussianBlur stdDeviation="0.3"/>
    </filter>
  </defs>

  <!-- Papel fundo -->
  <rect width="600" height="680" fill="#EFE9DA"/>
  <rect width="600" height="680" filter="url(#paper)"/>

  <!-- SELO CENTRAL -->
  <g transform="translate(300,310)" filter="url(#ink)">

    <!-- Aneis concentricos — 3 camadas -->
    <circle r="220" fill="none" stroke="#2B2520" stroke-width="0.8"/>
    <circle r="215" fill="none" stroke="#2B2520" stroke-width="1.6"/>
    <circle r="180" fill="none" stroke="#2B2520" stroke-width="0.6"/>
    <circle r="175" fill="none" stroke="#2B2520" stroke-width="0.4"/>

    <!-- Legenda orbital: chars posicionados individualmente via script
         (rsvg-convert nao renderiza textPath). Gerado por scripts/gen-orbital.py -->
    <g><!-- TOP -->
<text x="-167.18" y="-106.09" font-family="'IBM Plex Mono'" font-size="12" fill="#2B2520" text-anchor="middle" transform="rotate(302.40 -167.18 -106.09)">T</text>
<text x="-157.71" y="-119.71" font-family="'IBM Plex Mono'" font-size="12" fill="#2B2520" text-anchor="middle" transform="rotate(307.20 -157.71 -119.71)">I</text>
<text x="-147.14" y="-132.49" font-family="'IBM Plex Mono'" font-size="12" fill="#2B2520" text-anchor="middle" transform="rotate(312.00 -147.14 -132.49)">M</text>
<text x="-135.54" y="-144.34" font-family="'IBM Plex Mono'" font-size="12" fill="#2B2520" text-anchor="middle" transform="rotate(316.80 -135.54 -144.34)">E</text>
<text x="-122.99" y="-155.17" font-family="'IBM Plex Mono'" font-size="12" fill="#2B2520" text-anchor="middle" transform="rotate(321.60 -122.99 -155.17)">L</text>
<text x="-109.57" y="-164.92" font-family="'IBM Plex Mono'" font-size="12" fill="#2B2520" text-anchor="middle" transform="rotate(326.40 -109.57 -164.92)">A</text>
<text x="-95.39" y="-173.51" font-family="'IBM Plex Mono'" font-size="12" fill="#2B2520" text-anchor="middle" transform="rotate(331.20 -95.39 -173.51)">B</text>
<text x="-80.53" y="-180.88" font-family="'IBM Plex Mono'" font-size="12" fill="#2B2520" text-anchor="middle" transform="rotate(336.00 -80.53 -180.88)">S</text>
<text x="-49.24" y="-191.78" font-family="'IBM Plex Mono'" font-size="12" fill="#2B2520" text-anchor="middle" transform="rotate(345.60 -49.24 -191.78)">·</text>
<text x="-16.57" y="-197.31" font-family="'IBM Plex Mono'" font-size="12" fill="#2B2520" text-anchor="middle" transform="rotate(355.20 -16.57 -197.31)">C</text>
<text x="-0.00" y="-198.00" font-family="'IBM Plex Mono'" font-size="12" fill="#2B2520" text-anchor="middle" transform="rotate(360.00 -0.00 -198.00)">O</text>
<text x="16.57" y="-197.31" font-family="'IBM Plex Mono'" font-size="12" fill="#2B2520" text-anchor="middle" transform="rotate(4.80 16.57 -197.31)">D</text>
<text x="33.02" y="-195.23" font-family="'IBM Plex Mono'" font-size="12" fill="#2B2520" text-anchor="middle" transform="rotate(9.60 33.02 -195.23)">E</text>
<text x="49.24" y="-191.78" font-family="'IBM Plex Mono'" font-size="12" fill="#2B2520" text-anchor="middle" transform="rotate(14.40 49.24 -191.78)">X</text>
<text x="80.53" y="-180.88" font-family="'IBM Plex Mono'" font-size="12" fill="#2B2520" text-anchor="middle" transform="rotate(24.00 80.53 -180.88)">O</text>
<text x="95.39" y="-173.51" font-family="'IBM Plex Mono'" font-size="12" fill="#2B2520" text-anchor="middle" transform="rotate(28.80 95.39 -173.51)">P</text>
<text x="109.57" y="-164.92" font-family="'IBM Plex Mono'" font-size="12" fill="#2B2520" text-anchor="middle" transform="rotate(33.60 109.57 -164.92)">E</text>
<text x="122.99" y="-155.17" font-family="'IBM Plex Mono'" font-size="12" fill="#2B2520" text-anchor="middle" transform="rotate(38.40 122.99 -155.17)">R</text>
<text x="135.54" y="-144.34" font-family="'IBM Plex Mono'" font-size="12" fill="#2B2520" text-anchor="middle" transform="rotate(43.20 135.54 -144.34)">A</text>
<text x="147.14" y="-132.49" font-family="'IBM Plex Mono'" font-size="12" fill="#2B2520" text-anchor="middle" transform="rotate(48.00 147.14 -132.49)">N</text>
<text x="157.71" y="-119.71" font-family="'IBM Plex Mono'" font-size="12" fill="#2B2520" text-anchor="middle" transform="rotate(52.80 157.71 -119.71)">D</text>
<text x="167.18" y="-106.09" font-family="'IBM Plex Mono'" font-size="12" fill="#2B2520" text-anchor="middle" transform="rotate(57.60 167.18 -106.09)">I</text>
    </g>
    <g><!-- BOT -->
<text x="-167.65" y="105.34" font-family="'IBM Plex Mono'" font-size="12" fill="#2B2520" text-anchor="middle" transform="rotate(57.86 -167.65 105.34)">A</text>
<text x="-150.08" y="129.15" font-family="'IBM Plex Mono'" font-size="12" fill="#2B2520" text-anchor="middle" transform="rotate(49.29 -150.08 129.15)">A</text>
<text x="-140.01" y="140.01" font-family="'IBM Plex Mono'" font-size="12" fill="#2B2520" text-anchor="middle" transform="rotate(45.00 -140.01 140.01)">L</text>
<text x="-129.15" y="150.08" font-family="'IBM Plex Mono'" font-size="12" fill="#2B2520" text-anchor="middle" transform="rotate(40.71 -129.15 150.08)">Q</text>
<text x="-117.58" y="159.31" font-family="'IBM Plex Mono'" font-size="12" fill="#2B2520" text-anchor="middle" transform="rotate(36.43 -117.58 159.31)">U</text>
<text x="-105.34" y="167.65" font-family="'IBM Plex Mono'" font-size="12" fill="#2B2520" text-anchor="middle" transform="rotate(32.14 -105.34 167.65)">I</text>
<text x="-92.52" y="175.05" font-family="'IBM Plex Mono'" font-size="12" fill="#2B2520" text-anchor="middle" transform="rotate(27.86 -92.52 175.05)">M</text>
<text x="-79.18" y="181.48" font-family="'IBM Plex Mono'" font-size="12" fill="#2B2520" text-anchor="middle" transform="rotate(23.57 -79.18 181.48)">I</text>
<text x="-65.40" y="186.89" font-family="'IBM Plex Mono'" font-size="12" fill="#2B2520" text-anchor="middle" transform="rotate(19.29 -65.40 186.89)">A</text>
<text x="-36.81" y="194.55" font-family="'IBM Plex Mono'" font-size="12" fill="#2B2520" text-anchor="middle" transform="rotate(10.71 -36.81 194.55)">D</text>
<text x="-22.17" y="196.76" font-family="'IBM Plex Mono'" font-size="12" fill="#2B2520" text-anchor="middle" transform="rotate(6.43 -22.17 196.76)">O</text>
<text x="7.40" y="197.86" font-family="'IBM Plex Mono'" font-size="12" fill="#2B2520" text-anchor="middle" transform="rotate(-2.14 7.40 197.86)">T</text>
<text x="22.17" y="196.76" font-family="'IBM Plex Mono'" font-size="12" fill="#2B2520" text-anchor="middle" transform="rotate(-6.43 22.17 196.76)">E</text>
<text x="36.81" y="194.55" font-family="'IBM Plex Mono'" font-size="12" fill="#2B2520" text-anchor="middle" transform="rotate(-10.71 36.81 194.55)">M</text>
<text x="51.25" y="191.25" font-family="'IBM Plex Mono'" font-size="12" fill="#2B2520" text-anchor="middle" transform="rotate(-15.00 51.25 191.25)">P</text>
<text x="65.40" y="186.89" font-family="'IBM Plex Mono'" font-size="12" fill="#2B2520" text-anchor="middle" transform="rotate(-19.29 65.40 186.89)">O</text>
<text x="92.52" y="175.05" font-family="'IBM Plex Mono'" font-size="12" fill="#2B2520" text-anchor="middle" transform="rotate(-27.86 92.52 175.05)">·</text>
<text x="117.58" y="159.31" font-family="'IBM Plex Mono'" font-size="12" fill="#2B2520" text-anchor="middle" transform="rotate(-36.43 117.58 159.31)">M</text>
<text x="129.15" y="150.08" font-family="'IBM Plex Mono'" font-size="12" fill="#2B2520" text-anchor="middle" transform="rotate(-40.71 129.15 150.08)">M</text>
<text x="140.01" y="140.01" font-family="'IBM Plex Mono'" font-size="12" fill="#2B2520" text-anchor="middle" transform="rotate(-45.00 140.01 140.01)">X</text>
<text x="150.08" y="129.15" font-family="'IBM Plex Mono'" font-size="12" fill="#2B2520" text-anchor="middle" transform="rotate(-49.29 150.08 129.15)">X</text>
<text x="159.31" y="117.58" font-family="'IBM Plex Mono'" font-size="12" fill="#2B2520" text-anchor="middle" transform="rotate(-53.57 159.31 117.58)">V</text>
<text x="167.65" y="105.34" font-family="'IBM Plex Mono'" font-size="12" fill="#2B2520" text-anchor="middle" transform="rotate(-57.86 167.65 105.34)">I</text>
    </g>

    <!-- Separadores estrela nos 4 polos cardinais -->
    <g fill="#2B2520">
      <circle cx="0" cy="-198" r="2.2"/>
      <circle cx="198" cy="0" r="2.2"/>
      <circle cx="0" cy="198" r="2.2"/>
      <circle cx="-198" cy="0" r="2.2"/>
    </g>

    <!-- 6 glifos customizados nos vertices do hex (cada um = operacao TimeLabs) -->
    <g stroke="#2B2520" fill="none" stroke-width="1.5" stroke-linecap="round" stroke-linejoin="round">

      <!-- N: TRANSMUTAR — triangulo ascendente atravessado -->
      <g transform="translate(0,-145)">
        <polygon points="0,-13 11,8 -11,8"/>
        <line x1="-14" y1="-2" x2="14" y2="-2"/>
      </g>

      <!-- NE: INTEGRAR — 3 pontos conectados -->
      <g transform="translate(125,-72)">
        <line x1="-11" y1="8" x2="0" y2="-10"/>
        <line x1="0" y1="-10" x2="11" y2="8"/>
        <line x1="-11" y1="8" x2="11" y2="8"/>
        <circle cx="-11" cy="8" r="2.5" fill="#2B2520"/>
        <circle cx="11" cy="8" r="2.5" fill="#2B2520"/>
        <circle cx="0" cy="-10" r="2.5" fill="#2B2520"/>
      </g>

      <!-- SE: OTIMIZAR — diamante comprimido com barra horizontal -->
      <g transform="translate(125,72)">
        <polygon points="0,-10 11,0 0,10 -11,0"/>
        <line x1="-6" y1="0" x2="6" y2="0"/>
      </g>

      <!-- S: ANALISAR — olho com crosshair -->
      <g transform="translate(0,145)">
        <ellipse rx="13" ry="7"/>
        <circle r="3"/>
        <line x1="0" y1="-11" x2="0" y2="-7"/>
        <line x1="0" y1="7" x2="0" y2="11"/>
      </g>

      <!-- SW: CICLAR — seta circular -->
      <g transform="translate(-125,72)">
        <path d="M 10,0 A 10,10 0 1,1 0,-10"/>
        <polyline points="-4,-12 0,-10 -2,-6"/>
      </g>

      <!-- NW: REGISTRAR — codex aberto -->
      <g transform="translate(-125,-72)">
        <line x1="0" y1="-10" x2="0" y2="10"/>
        <path d="M 0,-10 L -12,-7 L -12,11 L 0,10"/>
        <path d="M 0,-10 L 12,-7 L 12,11 L 0,10"/>
      </g>
    </g>

    <!-- Linhas radiais finas ligando glifos ao nucleo -->
    <g stroke="#2B2520" stroke-width="0.35" opacity="0.55">
      <line x1="0" y1="-132" x2="0" y2="-80"/>
      <line x1="114" y1="-66" x2="70" y2="-41"/>
      <line x1="114" y1="66" x2="70" y2="41"/>
      <line x1="0" y1="132" x2="0" y2="80"/>
      <line x1="-114" y1="66" x2="-70" y2="41"/>
      <line x1="-114" y1="-66" x2="-70" y2="-41"/>
    </g>

    <!-- Hexagono central (o reator) -->
    <polygon points="80,0 40,-69.3 -40,-69.3 -80,0 -40,69.3 40,69.3"
             fill="#EFE9DA" stroke="#2B2520" stroke-width="2.2"/>
    <polygon points="76,0 38,-65.8 -38,-65.8 -76,0 -38,65.8 38,65.8"
             fill="none" stroke="#2B2520" stroke-width="0.5"/>

    <!-- Gota de mercurio amarela no centro -->
    <circle r="22" fill="#E0B03A"/>
    <circle r="22" fill="none" stroke="#2B2520" stroke-width="1.2"/>
    <circle r="18" fill="none" stroke="#2B2520" stroke-width="0.3" opacity="0.6"/>

    <!-- Monograma TL em Gloock (didone alta classe) -->
    <text x="0" y="11" text-anchor="middle"
          font-family="'Gloock', 'IBM Plex Serif', serif"
          font-size="40" fill="#2B2520" letter-spacing="-1">TL</text>
  </g>

  <!-- Wordmark logo abaixo do selo -->
  <g transform="translate(300,595)" text-anchor="middle">
    <text font-family="'Gloock', 'IBM Plex Serif', serif"
          font-size="38" fill="#2B2520" letter-spacing="2">TIMELABS</text>
    <text y="28" font-family="'IBM Plex Mono'" font-size="10"
          fill="#2B2520" letter-spacing="6" opacity="0.85">
      ·  A  ALQUIMIA  DO  TEMPO  ·
    </text>
  </g>

  <!-- Marca catalogadora no canto -->
  <text x="40" y="655" font-family="'IBM Plex Mono'" font-size="8"
        fill="#2B2520" letter-spacing="3" opacity="0.5">
    FOLIO 01 · REV 2026.04
  </text>
  <text x="560" y="655" text-anchor="end"
        font-family="'IBM Plex Mono'" font-size="8"
        fill="#2B2520" letter-spacing="3" opacity="0.5">
    TIMELABSBR.COM
  </text>
</svg>
